<?xml version="1.0"?>
<svg xmlns="http://www.w3.org/2000/svg" xmlns:xlink="http://www.w3.org/1999/xlink" xmlns:svgjs="http://svgjs.com/svgjs" version="1.1" width="512" height="512" x="0" y="0" viewBox="0 0 512 512" style="enable-background:new 0 0 512 512" xml:space="preserve" class=""><g><g xmlns="http://www.w3.org/2000/svg"><path d="m512 91.96v328.08c0 50.71-41.25 91.96-91.96 91.96h-328.08c-50.71 0-91.96-41.25-91.96-91.96v-328.08c0-50.71 41.25-91.96 91.96-91.96h328.08c50.71 0 91.96 41.25 91.96 91.96z" fill="#ffffff" data-original="#ecf9fd" style="" class=""/><path d="m512 91.96v328.08c0 50.71-41.25 91.96-91.96 91.96h-164.04v-512h164.04c50.71 0 91.96 41.25 91.96 91.96z" fill="#ffffff" data-original="#d9f3fc" style="" class=""/><path d="m432.69 399.56h-353.38c-19.92 0-19.93-30.12 0-30.12h353.38c19.92 0 19.93 30.12 0 30.12z" fill="#000000" data-original="#00357b" style="" class=""/><path d="m432.69 399.56h-176.69v-30.12h176.69c19.92 0 19.93 30.12 0 30.12z" fill="#000000" data-original="#001737" style="" class=""/><path d="m431.18 269.55h-353.38c-19.92 0-19.92-30.11 0-30.11h353.38c19.93 0 19.93 30.11 0 30.11z" fill="#000000" data-original="#00357b" style="" class=""/><path d="m431.18 269.55h-175.18v-30.11h175.18c19.93 0 19.93 30.11 0 30.11z" fill="#000000" data-original="#001737" style="" class=""/><path d="m431.18 141.05h-353.38c-19.92 0-19.92-30.12 0-30.12h353.38c19.93 0 19.93 30.12 0 30.12z" fill="#000000" data-original="#00357b" style="" class=""/><path d="m431.18 141.05h-175.18v-30.12h175.18c19.93 0 19.93 30.12 0 30.12z" fill="#000000" data-original="#001737" style="" class=""/><circle cx="352.376" cy="256" fill="#000000" r="47.184" data-original="#58b354" style="" class=""/><path d="m399.561 256c0 26.022-21.163 47.184-47.184 47.184v-94.369c26.021.001 47.184 21.163 47.184 47.185z" fill="#000000" data-original="#00a963" style="" class=""/><circle cx="223.875" cy="384.502" fill="#000000" r="47.184" data-original="#ffec00" style="" class=""/><path d="m271.059 384.502c0 26.022-21.163 47.184-47.184 47.184v-94.369c26.021.001 47.184 21.163 47.184 47.185z" fill="#000000" data-original="#ffd92e" style="" class=""/><circle cx="159.624" cy="127.498" fill="#000000" r="47.184" data-original="#ff2828" style="" class=""/><path d="m206.808 127.498c0 25.69-20.621 46.632-46.18 47.164v-94.328c25.559.532 46.18 21.474 46.18 47.164z" fill="#000000" data-original="#cc0000" style="" class=""/></g></g></svg>
